<svg xmlns="http://www.w3.org/2000/svg" x="0" y="0" enable-background="new 0 0 512 512" version="1.1" viewBox="0 0 512 512" xml:space="preserve"><path fill="#FAB446" d="M407.817.276H104.183C45.975 4.29 0 52.772 0 112v58.759h512V112C512 52.772 466.025 4.29 407.817.276z" class="jsx-2193241255"/><path fill="#73AF00" d="M0 400c0 59.228 45.976 107.711 104.184 111.724h303.632C466.024 507.711 512 459.228 512 400v-58.759H0V400z" class="jsx-2193241255"/><path fill="#F5F5F5" d="M0 170.76H512V341.24H0z" class="jsx-2193241255"/><g fill="#41479B" class="jsx-2193241255"><path d="M256 314.448c-32.229 0-58.448-26.219-58.448-58.448s26.219-58.448 58.448-58.448 58.448 26.219 58.448 58.448-26.219 58.448-58.448 58.448zm0-106.022c-26.235 0-47.574 21.339-47.574 47.574s21.339 47.574 47.574 47.574 47.574-21.339 47.574-47.574-21.339-47.574-47.574-47.574z" class="jsx-2193241255"/><circle cx="256" cy="256" r="6.626" class="jsx-2193241255"/><path d="M256 256.994L239.161 258.694 202.989 256.994 202.989 255.006 239.161 253.306 256 255.006z" class="jsx-2193241255"/><path d="M256 256.994L272.839 258.694 309.011 256.994 309.011 255.006 272.839 253.306 256 255.006z" class="jsx-2193241255"/><path d="M255.006 256L253.306 239.161 255.006 202.989 256.994 202.989 258.694 239.161 256.994 256z" class="jsx-2193241255"/><path d="M255.006 256L253.306 272.839 255.006 309.011 256.994 309.011 258.694 272.839 256.994 256z" class="jsx-2193241255"/><path d="M255.297 256.703L242.188 245.998 217.813 219.218 219.218 217.813 245.998 242.188 256.703 255.297z" class="jsx-2193241255"/><path d="M255.297 256.703L266.002 269.812 292.782 294.188 294.187 292.782 269.812 266.002 256.703 255.297z" class="jsx-2193241255"/><path d="M255.297 255.297L266.002 242.188 292.782 217.813 294.187 219.218 269.812 245.998 256.703 256.703z" class="jsx-2193241255"/><path d="M255.297 255.297L242.188 266.002 217.813 292.782 219.218 294.188 245.998 269.812 256.703 256.703z" class="jsx-2193241255"/><path d="M256.38 256.918L241.474 264.933 207.404 277.205 206.644 275.368 239.412 259.955 255.62 255.082z" class="jsx-2193241255"/><path d="M256.38 256.918L272.588 252.045 305.356 236.632 304.596 234.795 270.526 247.067 255.62 255.082z" class="jsx-2193241255"/><path d="M255.082 256.38L247.067 241.474 234.795 207.404 236.632 206.644 252.045 239.412 256.918 255.62z" class="jsx-2193241255"/><path d="M255.082 256.38L259.955 272.588 275.368 305.356 277.205 304.596 264.933 270.526 256.918 255.62z" class="jsx-2193241255"/><path d="M255.62 256.918L239.412 252.045 206.644 236.632 207.404 234.795 241.474 247.067 256.38 255.082z" class="jsx-2193241255"/><path d="M255.62 256.918L270.526 264.933 304.596 277.205 305.356 275.368 272.588 259.955 256.38 255.082z" class="jsx-2193241255"/><path d="M255.082 255.62L259.955 239.412 275.368 206.644 277.205 207.404 264.933 241.474 256.918 256.38z" class="jsx-2193241255"/><path d="M255.082 255.62L247.067 270.526 234.795 304.596 236.632 305.356 252.045 272.588 256.918 256.38z" class="jsx-2193241255"/></g><circle cx="256" cy="256" r="7.257" fill="#F5F5F5" class="jsx-2193241255"/><circle cx="256" cy="256" r="5.359" fill="#41479B" class="jsx-2193241255"/></svg>