<svg width="41" height="40" viewBox="0 0 41 40" fill="none" xmlns="http://www.w3.org/2000/svg">
<path d="M11.2365 9.72281L24.1287 5.36896C29.9142 3.41511 33.0576 6.61511 31.1442 12.4767L26.8468 25.5382C23.9616 34.3228 19.2239 34.3228 16.3387 25.5382L15.0631 21.6613L11.2365 20.369C2.56571 17.4459 2.56571 12.6613 11.2365 9.72281Z" stroke="#4F46E5" stroke-width="1.5" stroke-linecap="round" stroke-linejoin="round"/>
<path opacity="0.34" d="M15.3525 21.0001L20.7888 15.4771" stroke="#4F46E5" stroke-width="1.5" stroke-linecap="round" stroke-linejoin="round"/>
<path opacity="0.4" d="M15.3525 12.246L29.0495 7.61523C35.1995 5.53831 38.5402 8.93831 36.5054 15.1691L31.9347 29.046C28.8673 38.3845 23.8258 38.3845 20.7584 29.046L19.4069 24.9229L15.3373 23.5537C6.13505 20.4614 6.13505 15.3691 15.3525 12.246Z" fill="#4F46E5"/>
<path d="M22.96 20.9692L28.7455 15.0923Z" fill="#4F46E5"/>
<path d="M22.9588 22.1231C22.6703 22.1231 22.3818 22.0155 22.154 21.7847C21.7136 21.3385 21.7136 20.6001 22.154 20.1539L27.9244 14.277C28.3647 13.8308 29.0936 13.8308 29.534 14.277C29.9744 14.7232 29.9744 15.4616 29.534 15.9078L23.7636 21.7847C23.5359 22.0001 23.2473 22.1231 22.9588 22.1231Z" fill="#4F46E5"/>
</svg>
