<svg width="41" height="40" viewBox="0 0 41 40" fill="none" xmlns="http://www.w3.org/2000/svg">
<path d="M11.2362 9.72256L24.1284 5.36872C29.914 3.41487 33.0573 6.61487 31.144 12.4764L26.8466 25.5379C23.9614 34.3226 19.2236 34.3226 16.3384 25.5379L15.0629 21.661L11.2362 20.3687C2.56547 17.4456 2.56547 12.661 11.2362 9.72256Z" stroke="#1758FF" stroke-width="1.5" stroke-linecap="round" stroke-linejoin="round"/>
<path opacity="0.34" d="M15.3528 20.9996L20.7891 15.4766" stroke="#1758FF" stroke-width="1.5" stroke-linecap="round" stroke-linejoin="round"/>
<path opacity="0.4" d="M15.3528 12.2467L29.0499 7.61596C35.1999 5.53904 38.5406 8.93904 36.5058 15.1698L31.935 29.0467C28.8676 38.3852 23.8262 38.3852 20.7587 29.0467L19.4073 24.9237L15.3376 23.5544C6.13541 20.4621 6.13541 15.3698 15.3528 12.2467Z" fill="#1758FF"/>
<path d="M22.9597 20.9697L28.7453 15.0928L22.9597 20.9697Z" fill="#1758FF"/>
<path d="M22.9596 22.1231C22.671 22.1231 22.3825 22.0155 22.1547 21.7847C21.7144 21.3385 21.7144 20.6001 22.1547 20.1539L27.9251 14.277C28.3655 13.8308 29.0944 13.8308 29.5347 14.277C29.9751 14.7232 29.9751 15.4616 29.5347 15.9078L23.7644 21.7847C23.5366 22.0001 23.2481 22.1231 22.9596 22.1231Z" fill="#1758FF"/>
</svg>
