<svg width="25" height="24" viewBox="0 0 25 24" fill="none" xmlns="http://www.w3.org/2000/svg">
<path d="M12.9529 2.90991C9.64944 2.90991 6.96477 5.59991 6.96477 8.90991V11.7999C6.96477 12.4099 6.70528 13.3399 6.3959 13.8599L5.24817 15.7699C4.53958 16.9499 5.02861 18.2599 6.32603 18.6999C10.6275 20.1399 15.2683 20.1399 19.5698 18.6999C20.7774 18.2999 21.3063 16.8699 20.6476 15.7699L19.4999 13.8599C19.2005 13.3399 18.941 12.4099 18.941 11.7999V8.90991C18.941 5.60991 16.2464 2.90991 12.9529 2.90991Z" stroke="#292D32" stroke-width="1.5" stroke-miterlimit="10" stroke-linecap="round"/>
<path d="M14.7991 3.19994C14.4897 3.10994 14.1704 3.03994 13.841 2.99994C12.8829 2.87994 11.9647 2.94994 11.1064 3.19994C11.3959 2.45994 12.1144 1.93994 12.9528 1.93994C13.7911 1.93994 14.5097 2.45994 14.7991 3.19994Z" stroke="#292D32" stroke-width="1.5" stroke-miterlimit="10" stroke-linecap="round" stroke-linejoin="round"/>
<path d="M15.9466 19.0601C15.9466 20.7101 14.5993 22.0601 12.9526 22.0601C12.1342 22.0601 11.3757 21.7201 10.8368 21.1801C10.2978 20.6401 9.9585 19.8801 9.9585 19.0601" stroke="#292D32" stroke-width="1.5" stroke-miterlimit="10"/>
</svg>
