<svg  fill="none" xmlns="http://www.w3.org/2000/svg">
<path d="M27.0877 8.6875C26.2877 5.975 24.0252 3.7125 21.3127 2.9125C19.2502 2.3125 17.8252 2.3625 16.8377 3.1C15.6502 3.9875 15.5127 5.5875 15.5127 6.725V9.8375C15.5127 12.9125 16.9127 14.475 19.6627 14.475H23.2502C24.3752 14.475 25.9877 14.3375 26.8752 13.15C27.6377 12.175 27.7002 10.75 27.0877 8.6875Z" fill="#292D32"/>
<path opacity="0.4" d="M23.6377 16.6999C23.3127 16.3249 22.8377 16.1124 22.3502 16.1124H17.8752C15.6752 16.1124 13.8877 14.3249 13.8877 12.1249V7.64994C13.8877 7.16244 13.6752 6.68744 13.3002 6.36244C12.9377 6.03744 12.4377 5.88744 11.9627 5.94994C9.02524 6.32494 6.32524 7.93744 4.56274 10.3624C2.78774 12.7999 2.13774 15.7749 2.70024 18.7499C3.51274 23.0499 6.95024 26.4874 11.2627 27.2999C11.9502 27.4374 12.6377 27.4999 13.3252 27.4999C15.5877 27.4999 17.7752 26.7999 19.6377 25.4374C22.0627 23.6749 23.6752 20.9749 24.0502 18.0374C24.1127 17.5499 23.9627 17.0624 23.6377 16.6999Z" fill="#292D32"/>
</svg>
