<svg xmlns="http://www.w3.org/2000/svg" viewBox="0 0 16 17"><path fill="#F1C644" stroke="#F1C644" stroke-width="1.286" d="m8.99 2.052.924 2.223a2.357 2.357 0 0 0 1.988 1.445l2.4.192c.95.076 1.335 1.262.611 1.882L13.085 9.36a2.357 2.357 0 0 0-.76 2.337l.559 2.342c.221.927-.787 1.66-1.6 1.163l-2.055-1.255a2.357 2.357 0 0 0-2.458 0l-2.054 1.255c-.814.497-1.822-.236-1.601-1.163l.559-2.342a2.357 2.357 0 0 0-.76-2.337L1.087 7.794c-.724-.62-.339-1.806.611-1.882l2.4-.192a2.357 2.357 0 0 0 1.988-1.445l.925-2.223c.366-.88 1.612-.88 1.978 0Z"/></svg>