<svg width="76" height="75" viewBox="0 0 76 75" fill="none" xmlns="http://www.w3.org/2000/svg">
<path opacity="0.4" d="M37.9762 67.991C55.0445 67.991 68.8811 54.1544 68.8811 37.0861C68.8811 20.0177 55.0445 6.18115 37.9762 6.18115C20.9079 6.18115 7.07129 20.0177 7.07129 37.0861C7.07129 54.1544 20.9079 67.991 37.9762 67.991Z" fill="#01A912"/>
<path d="M33.5885 48.1501C32.9704 48.1501 32.3832 47.9029 31.9505 47.4702L23.2044 38.7241C22.3082 37.8279 22.3082 36.3444 23.2044 35.4482C24.1007 34.552 25.5841 34.552 26.4803 35.4482L33.5885 42.5563L49.4736 26.6712C50.3698 25.775 51.8533 25.775 52.7495 26.6712C53.6457 27.5674 53.6457 29.0509 52.7495 29.9471L35.2264 47.4702C34.7937 47.9029 34.2066 48.1501 33.5885 48.1501Z" fill="#01A912"/>
</svg>
