<svg width="37" height="35" viewBox="0 0 37 35" fill="none" xmlns="http://www.w3.org/2000/svg">
<path d="M16.9883 1.80559C17.5739 0.397659 19.5684 0.397662 20.154 1.80559L23.837 10.6605C24.0838 11.2541 24.642 11.6596 25.2828 11.711L34.8425 12.4774C36.3625 12.5993 36.9788 14.4961 35.8207 15.4881L28.5373 21.7272C28.0491 22.1454 27.8358 22.8016 27.985 23.4269L30.2102 32.7555C30.564 34.2387 28.9505 35.4111 27.6491 34.6162L19.4647 29.6172C18.9161 29.2821 18.2262 29.2821 17.6776 29.6172L9.49316 34.6162C8.19185 35.4111 6.57827 34.2387 6.93208 32.7555L9.1573 23.4269C9.30645 22.8016 9.09324 22.1454 8.60504 21.7272L1.32157 15.4881C0.163511 14.4961 0.779843 12.5993 2.29982 12.4774L11.8595 11.711C12.5003 11.6596 13.0585 11.2541 13.3053 10.6605L16.9883 1.80559Z" fill="#D4D4D4"/>
</svg>
