<svg width="37" height="35" viewBox="0 0 37 35" fill="none" xmlns="http://www.w3.org/2000/svg">
<path d="M17.7254 2.05247C18.0914 1.17251 19.338 1.17251 19.704 2.05247L23.387 10.9074C23.7264 11.7235 24.4939 12.2812 25.375 12.3518L34.9347 13.1182C35.8847 13.1944 36.2699 14.3799 35.5461 14.9999L28.2626 21.239C27.5913 21.814 27.2982 22.7163 27.5032 23.576L29.7285 32.9047C29.9496 33.8317 28.9411 34.5644 28.1278 34.0676L19.9434 29.0686C19.189 28.6079 18.2404 28.6079 17.486 29.0686L9.30162 34.0676C8.4883 34.5644 7.47982 33.8317 7.70095 32.9047L9.92616 23.576C10.1313 22.7163 9.83809 21.814 9.1668 21.239L1.88334 14.9999C1.15956 14.3799 1.54476 13.1944 2.49475 13.1182L12.0544 12.3518C12.9355 12.2812 13.703 11.7235 14.0424 10.9074L17.7254 2.05247Z" fill="#F1C644" stroke="#F1C644" stroke-width="1.28571"/>
</svg>
