<svg width="37" height="35" viewBox="0 0 37 35" fill="none" xmlns="http://www.w3.org/2000/svg">
<path d="M17.4393 2.05247C17.8053 1.17251 19.0518 1.17251 19.4178 2.05247L23.1008 10.9074C23.4403 11.7235 24.2078 12.2812 25.0889 12.3518L34.6485 13.1182C35.5985 13.1944 35.9837 14.3799 35.2599 14.9999L27.9765 21.239C27.3052 21.814 27.012 22.7163 27.2171 23.576L29.4423 32.9047C29.6635 33.8317 28.655 34.5644 27.8417 34.0676L19.6572 29.0686C18.9029 28.6079 17.9542 28.6079 17.1999 29.0686L9.01549 34.0676C8.20217 34.5644 7.19369 33.8317 7.41482 32.9047L9.64003 23.576C9.84512 22.7163 9.55196 21.814 8.88067 21.239L1.59721 14.9999C0.873423 14.3799 1.25863 13.1944 2.20862 13.1182L11.7683 12.3518C12.6494 12.2812 13.4169 11.7235 13.7563 10.9074L17.4393 2.05247Z" fill="#F1C644" stroke="#F1C644" stroke-width="1.28571"/>
</svg>
