<svg width="36" height="35" viewBox="0 0 36 35" fill="none" xmlns="http://www.w3.org/2000/svg">
<path d="M17.0106 2.05247C17.3766 1.17251 18.6231 1.17251 18.9891 2.05247L22.6721 10.9074C23.0116 11.7235 23.7791 12.2812 24.6601 12.3518L34.2198 13.1182C35.1698 13.1944 35.555 14.3799 34.8312 14.9999L27.5478 21.239C26.8765 21.814 26.5833 22.7163 26.7884 23.576L29.0136 32.9047C29.2347 33.8317 28.2263 34.5644 27.4129 34.0676L19.2285 29.0686C18.4742 28.6079 17.5255 28.6079 16.7712 29.0686L8.58678 34.0676C7.77346 34.5644 6.76498 33.8317 6.98611 32.9047L9.21132 23.576C9.41641 22.7163 9.12325 21.814 8.45196 21.239L1.1685 14.9999C0.444712 14.3799 0.829916 13.1944 1.77991 13.1182L11.3396 12.3518C12.2207 12.2812 12.9882 11.7235 13.3276 10.9074L17.0106 2.05247Z" fill="#F1C644" stroke="#F1C644" stroke-width="1.28571"/>
</svg>
