<svg width="37" height="35" viewBox="0 0 37 35" fill="none" xmlns="http://www.w3.org/2000/svg">
<path d="M16.7032 1.80559C17.2888 0.397659 19.2832 0.397662 19.8688 1.80559L23.5518 10.6605C23.7987 11.2541 24.3569 11.6596 24.9977 11.711L34.5573 12.4774C36.0773 12.5993 36.6936 14.4961 35.5356 15.4881L28.2521 21.7272C27.7639 22.1454 27.5507 22.8016 27.6998 23.4269L29.9251 32.7555C30.2789 34.2387 28.6653 35.4111 27.364 34.6162L19.1796 29.6172C18.631 29.2821 17.941 29.2821 17.3924 29.6172L9.208 34.6162C7.90669 35.4111 6.29312 34.2387 6.64693 32.7555L8.87214 23.4269C9.0213 22.8016 8.80809 22.1454 8.31988 21.7272L1.03642 15.4881C-0.121646 14.4961 0.494687 12.5993 2.01467 12.4774L11.5743 11.711C12.2151 11.6596 12.7733 11.2541 13.0202 10.6605L16.7032 1.80559Z" fill="#D4D4D4"/>
</svg>
