<svg width="22" height="22" viewBox="0 0 22 22" fill="none" xmlns="http://www.w3.org/2000/svg">
<path opacity="0.4" d="M10.9997 20.1666C16.0623 20.1666 20.1663 16.0625 20.1663 10.9999C20.1663 5.93731 16.0623 1.83325 10.9997 1.83325C5.93706 1.83325 1.83301 5.93731 1.83301 10.9999C1.83301 16.0625 5.93706 20.1666 10.9997 20.1666Z" fill="white"/>
<path d="M9.6993 14.2819C9.51596 14.2819 9.3418 14.2085 9.21346 14.0802L6.6193 11.486C6.35346 11.2202 6.35346 10.7802 6.6193 10.5144C6.88513 10.2485 7.32513 10.2485 7.59096 10.5144L9.6993 12.6227L14.411 7.91104C14.6768 7.64521 15.1168 7.64521 15.3826 7.91104C15.6485 8.17688 15.6485 8.61688 15.3826 8.88271L10.1851 14.0802C10.0568 14.2085 9.88263 14.2819 9.6993 14.2819Z" fill="white"/>
</svg>
