<svg width="61" height="60" viewBox="0 0 61 60" fill="none" xmlns="http://www.w3.org/2000/svg">
<path opacity="0.4" d="M45.3144 33.875C44.2644 34.9 43.6644 36.375 43.8144 37.95C44.0394 40.65 46.5144 42.625 49.2144 42.625H53.9644V45.6C53.9644 50.775 49.7394 55 44.5644 55H15.8644C10.6894 55 6.46436 50.775 6.46436 45.6V28.775C6.46436 23.6 10.6894 19.375 15.8644 19.375H44.5644C49.7394 19.375 53.9644 23.6 53.9644 28.775V32.375H48.9144C47.5144 32.375 46.2394 32.925 45.3144 33.875Z" fill="#13AB22"/>
<path d="M37.3394 9.87506V19.375H15.8644C10.6894 19.375 6.46436 23.6001 6.46436 28.7751V19.6001C6.46436 16.6251 8.28936 13.975 11.0644 12.925L30.9144 5.42499C34.0144 4.27499 37.3394 6.55006 37.3394 9.87506Z" fill="#13AB22"/>
<path d="M56.6144 34.9249V40.075C56.6144 41.45 55.5144 42.5749 54.1144 42.6249H49.2144C46.5144 42.6249 44.0394 40.65 43.8144 37.95C43.6644 36.375 44.2644 34.8999 45.3144 33.8749C46.2394 32.9249 47.5144 32.375 48.9144 32.375H54.1144C55.5144 32.425 56.6144 33.5499 56.6144 34.9249Z" fill="#13AB22"/>
<path d="M35.2144 31.875H17.7144C16.6894 31.875 15.8394 31.025 15.8394 30C15.8394 28.975 16.6894 28.125 17.7144 28.125H35.2144C36.2394 28.125 37.0894 28.975 37.0894 30C37.0894 31.025 36.2394 31.875 35.2144 31.875Z" fill="#13AB22"/>
</svg>
