<svg width="60" height="60" viewBox="0 0 60 60" fill="none" xmlns="http://www.w3.org/2000/svg">
<path opacity="0.4" d="M54.1499 26.1L51.6999 36.55C49.5999 45.575 45.4499 49.225 37.6499 48.475C36.3999 48.375 35.0499 48.15 33.5999 47.8L29.3999 46.8C18.9749 44.325 15.7499 39.175 18.1999 28.725L20.6499 18.25C21.1499 16.125 21.7499 14.275 22.4999 12.75C25.4249 6.70002 30.3999 5.07502 38.7499 7.05002L42.9249 8.02502C53.3999 10.475 56.5999 15.65 54.1499 26.1Z" fill="#FF5D00"/>
<path d="M37.6501 48.4752C36.1001 49.5252 34.1501 50.4002 31.7751 51.1752L27.8251 52.4752C17.9001 55.6752 12.6751 53.0002 9.45012 43.0752L6.25012 33.2002C3.05012 23.2752 5.70012 18.0252 15.6251 14.8252L19.5751 13.5252C20.6001 13.2002 21.5751 12.9252 22.5001 12.7502C21.7501 14.2752 21.1501 16.1252 20.6501 18.2502L18.2001 28.7252C15.7501 39.1752 18.9751 44.3252 29.4001 46.8002L33.6001 47.8002C35.0501 48.1502 36.4001 48.3752 37.6501 48.4752Z" fill="#FF5D00"/>
<path d="M43.7252 26.2749C43.5752 26.2749 43.4252 26.2499 43.2502 26.2249L31.1252 23.1499C30.1252 22.8999 29.5252 21.8749 29.7752 20.8749C30.0252 19.8749 31.0502 19.2749 32.0502 19.5249L44.1752 22.5999C45.1752 22.8499 45.7752 23.8749 45.5252 24.8749C45.3252 25.6999 44.5502 26.2749 43.7252 26.2749Z" fill="#FF5D00"/>
<path d="M36.3998 34.7247C36.2498 34.7247 36.0998 34.6997 35.9248 34.6747L28.6498 32.8247C27.6498 32.5747 27.0498 31.5497 27.2998 30.5497C27.5498 29.5497 28.5748 28.9497 29.5748 29.1997L36.8498 31.0497C37.8498 31.2997 38.4498 32.3247 38.1998 33.3247C37.9998 34.1747 37.2498 34.7247 36.3998 34.7247Z" fill="#FF5D00"/>
</svg>
