<svg width="60" height="60" viewBox="0 0 60 60" fill="none" xmlns="http://www.w3.org/2000/svg">
<path opacity="0.4" d="M43.8251 19.425C43.6501 19.4 43.4751 19.4 43.3001 19.425C39.4251 19.3 36.3501 16.125 36.3501 12.225C36.3501 8.25 39.5751 5 43.5751 5C47.5501 5 50.8001 8.225 50.8001 12.225C50.7751 16.125 47.7001 19.3 43.8251 19.425Z" fill="#0049FF"/>
<path opacity="0.4" d="M51.975 36.7498C49.175 38.6248 45.25 39.3248 41.625 38.8498C42.575 36.7998 43.075 34.5248 43.1 32.1248C43.1 29.6248 42.55 27.2498 41.5 25.1748C45.2 24.6748 49.125 25.3748 51.95 27.2498C55.9 29.8498 55.9 34.1248 51.975 36.7498Z" fill="#0049FF"/>
<path opacity="0.4" d="M16.1 19.425C16.275 19.4 16.45 19.4 16.625 19.425C20.5 19.3 23.575 16.125 23.575 12.225C23.575 8.25 20.35 5 16.35 5C12.375 5 9.12503 8.225 9.12503 12.225C9.15003 16.125 12.225 19.3 16.1 19.425Z" fill="#0049FF"/>
<path opacity="0.4" d="M16.375 32.1253C16.375 34.5503 16.9 36.8503 17.85 38.9253C14.325 39.3003 10.65 38.5503 7.94999 36.7753C3.99999 34.1503 3.99999 29.8752 7.94999 27.2502C10.625 25.4502 14.4 24.7253 17.95 25.1253C16.925 27.2253 16.375 29.6003 16.375 32.1253Z" fill="#0049FF"/>
<path d="M30.3001 39.675C30.1001 39.65 29.8751 39.65 29.6501 39.675C25.0501 39.525 21.3751 35.75 21.3751 31.1C21.3751 26.35 25.2001 22.5 29.9751 22.5C34.7251 22.5 38.5751 26.35 38.5751 31.1C38.5751 35.75 34.9251 39.525 30.3001 39.675Z" fill="#0049FF"/>
<path d="M22.1751 44.8499C18.4001 47.3749 18.4001 51.5248 22.1751 54.0248C26.4751 56.8998 33.5251 56.8998 37.8251 54.0248C41.6001 51.4998 41.6001 47.3499 37.8251 44.8499C33.5501 41.9749 26.5001 41.9749 22.1751 44.8499Z" fill="#0049FF"/>
</svg>
